<svg id="Layer_1" enable-background="new 0 0 510 510" height="512" viewBox="0 0 510 510" width="512" xmlns="http://www.w3.org/2000/svg"><g><path d="m510 405h-75v-330h-330v-75h-30v75h-75v30h75v330h330v75h30v-75h75zm-405 0v-300h300v300z"/><path d="m451.272 16.063h55.331v29.999h-55.331z" transform="matrix(.707 -.707 .707 .707 118.313 347.758)"/><path d="m305.293 161.688h56.038v29.999h-56.038z" transform="matrix(.707 -.707 .707 .707 -27.312 287.438)"/><path d="m226.094 240.777h56.257v30h-56.257z" transform="matrix(.707 -.707 .707 .707 -106.402 254.678)"/><path d="m146.761 320.111h56.256v29.999h-56.256z" transform="matrix(.707 -.707 .707 .707 -185.735 221.817)"/><path d="m5.076 462.519h54.812v30h-54.812z" transform="matrix(.707 -.707 .707 .707 -328.143 162.83)"/></g></svg>